<?xml version="1.0" encoding="UTF-8"?>
<svg xmlns="http://www.w3.org/2000/svg" width="340" height="1514.0" viewBox="0 0 340 1514.0">

<defs>
  <linearGradient id="headerGradient" x1="0%" y1="0%" x2="0%" y2="100%">
    <stop offset="0%" style="stop-color:#5a9fd4"/>
    <stop offset="100%" style="stop-color:#4a90d9"/>
  </linearGradient>
  <marker id="arrowhead" markerWidth="10" markerHeight="7"
          refX="9" refY="3.5" orient="auto">
    <polygon points="0 0, 10 3.5, 0 7" fill="#666666"/>
  </marker>
  <filter id="shadow" x="-20%" y="-20%" width="140%" height="140%">
    <feDropShadow dx="2" dy="2" stdDeviation="2" flood-opacity="0.3"/>
  </filter>
</defs>

<rect x="0" y="0" width="340" height="1514.0" fill="#ffffff" stroke="none" stroke-width="1" rx="0"/>
<g filter="url(#shadow)">
<rect x="40" y="40" width="200" height="180" fill="#f8f9fa" stroke="#333333" stroke-width="2" rx="5"/>
</g>
<rect x="40" y="40" width="200" height="50" fill="url(#headerGradient)" stroke="#333333" stroke-width="2" rx="5"/>
<text x="140" y="60" fill="#ffffff" font-size="14" font-weight="bold" text-anchor="middle" font-family="monospace">cpu</text>
<text x="140" y="78" fill="#ffffff" font-size="11" font-weight="normal" text-anchor="middle" font-family="monospace">(Datapath)</text>
<line x1="10" y1="113" x2="40" y2="113" stroke="#28a745" stroke-width="2" marker-end="url(#arrowhead)"/>
<circle cx="40" cy="113" r="5" fill="#28a745" stroke="#333333" stroke-width="1"/>
<text x="50" y="117" fill="#333333" font-size="11" font-weight="normal" text-anchor="start" font-family="monospace">clk</text>
<line x1="10" y1="138" x2="40" y2="138" stroke="#28a745" stroke-width="2" marker-end="url(#arrowhead)"/>
<circle cx="40" cy="138" r="5" fill="#28a745" stroke="#333333" stroke-width="1"/>
<text x="50" y="142" fill="#333333" font-size="11" font-weight="normal" text-anchor="start" font-family="monospace">rst</text>
<circle cx="240" cy="113" r="5" fill="#dc3545" stroke="#333333" stroke-width="1"/>
<line x1="240" y1="113" x2="270" y2="113" stroke="#dc3545" stroke-width="2" marker-end="url(#arrowhead)"/>
<text x="230" y="117" fill="#333333" font-size="11" font-weight="normal" text-anchor="end" font-family="monospace">pc_out[16]</text>
<circle cx="240" cy="138" r="5" fill="#dc3545" stroke="#333333" stroke-width="1"/>
<line x1="240" y1="138" x2="270" y2="138" stroke="#dc3545" stroke-width="2" marker-end="url(#arrowhead)"/>
<text x="230" y="142" fill="#333333" font-size="11" font-weight="normal" text-anchor="end" font-family="monospace">acc_out[8]</text>
<circle cx="240" cy="163" r="5" fill="#dc3545" stroke="#333333" stroke-width="1"/>
<line x1="240" y1="163" x2="270" y2="163" stroke="#dc3545" stroke-width="2" marker-end="url(#arrowhead)"/>
<text x="230" y="167" fill="#333333" font-size="11" font-weight="normal" text-anchor="end" font-family="monospace">zero_flag</text>
<circle cx="240" cy="188" r="5" fill="#dc3545" stroke="#333333" stroke-width="1"/>
<line x1="240" y1="188" x2="270" y2="188" stroke="#dc3545" stroke-width="2" marker-end="url(#arrowhead)"/>
<text x="230" y="192" fill="#333333" font-size="11" font-weight="normal" text-anchor="end" font-family="monospace">halted</text>
<text x="40" y="250" fill="black" font-size="14" font-weight="bold" text-anchor="start" font-family="monospace">Internal Components</text>
<g transform="translate(40, 270) scale(0.8)">
<g filter="url(#shadow)">
<rect x="0" y="0" width="200" height="230" fill="#e9ecef" stroke="#6c757d" stroke-width="2" rx="5"/>
</g>
<rect x="0" y="0" width="200" height="50" fill="url(#headerGradient)" stroke="#6c757d" stroke-width="2" rx="5"/>
<text x="100" y="20" fill="#ffffff" font-size="14" font-weight="bold" text-anchor="middle" font-family="monospace">pc</text>
<text x="100" y="38" fill="#ffffff" font-size="11" font-weight="normal" text-anchor="middle" font-family="monospace">(ProgramCounter)</text>
<line x1="-30" y1="73" x2="0" y2="73" stroke="#28a745" stroke-width="2" marker-end="url(#arrowhead)"/>
<circle cx="0" cy="73" r="5" fill="#28a745" stroke="#6c757d" stroke-width="1"/>
<text x="10" y="77" fill="#333333" font-size="11" font-weight="normal" text-anchor="start" font-family="monospace">clk</text>
<line x1="-30" y1="98" x2="0" y2="98" stroke="#28a745" stroke-width="2" marker-end="url(#arrowhead)"/>
<circle cx="0" cy="98" r="5" fill="#28a745" stroke="#6c757d" stroke-width="1"/>
<text x="10" y="102" fill="#333333" font-size="11" font-weight="normal" text-anchor="start" font-family="monospace">rst</text>
<line x1="-30" y1="123" x2="0" y2="123" stroke="#28a745" stroke-width="2" marker-end="url(#arrowhead)"/>
<circle cx="0" cy="123" r="5" fill="#28a745" stroke="#6c757d" stroke-width="1"/>
<text x="10" y="127" fill="#333333" font-size="11" font-weight="normal" text-anchor="start" font-family="monospace">en</text>
<line x1="-30" y1="148" x2="0" y2="148" stroke="#28a745" stroke-width="2" marker-end="url(#arrowhead)"/>
<circle cx="0" cy="148" r="5" fill="#28a745" stroke="#6c757d" stroke-width="1"/>
<text x="10" y="152" fill="#333333" font-size="11" font-weight="normal" text-anchor="start" font-family="monospace">load</text>
<line x1="-30" y1="173" x2="0" y2="173" stroke="#28a745" stroke-width="2" marker-end="url(#arrowhead)"/>
<circle cx="0" cy="173" r="5" fill="#28a745" stroke="#6c757d" stroke-width="1"/>
<text x="10" y="177" fill="#333333" font-size="11" font-weight="normal" text-anchor="start" font-family="monospace">d[16]</text>
<line x1="-30" y1="198" x2="0" y2="198" stroke="#28a745" stroke-width="2" marker-end="url(#arrowhead)"/>
<circle cx="0" cy="198" r="5" fill="#28a745" stroke="#6c757d" stroke-width="1"/>
<text x="10" y="202" fill="#333333" font-size="11" font-weight="normal" text-anchor="start" font-family="monospace">inc[16]</text>
<circle cx="200" cy="73" r="5" fill="#dc3545" stroke="#6c757d" stroke-width="1"/>
<line x1="200" y1="73" x2="230" y2="73" stroke="#dc3545" stroke-width="2" marker-end="url(#arrowhead)"/>
<text x="190" y="77" fill="#333333" font-size="11" font-weight="normal" text-anchor="end" font-family="monospace">q[16]</text>
</g>
<g transform="translate(40, 474.0) scale(0.8)">
<g filter="url(#shadow)">
<rect x="0" y="0" width="200" height="180" fill="#e9ecef" stroke="#6c757d" stroke-width="2" rx="5"/>
</g>
<rect x="0" y="0" width="200" height="50" fill="url(#headerGradient)" stroke="#6c757d" stroke-width="2" rx="5"/>
<text x="100" y="20" fill="#ffffff" font-size="14" font-weight="bold" text-anchor="middle" font-family="monospace">acc</text>
<text x="100" y="38" fill="#ffffff" font-size="11" font-weight="normal" text-anchor="middle" font-family="monospace">(Register)</text>
<line x1="-30" y1="73" x2="0" y2="73" stroke="#28a745" stroke-width="2" marker-end="url(#arrowhead)"/>
<circle cx="0" cy="73" r="5" fill="#28a745" stroke="#6c757d" stroke-width="1"/>
<text x="10" y="77" fill="#333333" font-size="11" font-weight="normal" text-anchor="start" font-family="monospace">d[8]</text>
<line x1="-30" y1="98" x2="0" y2="98" stroke="#28a745" stroke-width="2" marker-end="url(#arrowhead)"/>
<circle cx="0" cy="98" r="5" fill="#28a745" stroke="#6c757d" stroke-width="1"/>
<text x="10" y="102" fill="#333333" font-size="11" font-weight="normal" text-anchor="start" font-family="monospace">clk</text>
<line x1="-30" y1="123" x2="0" y2="123" stroke="#28a745" stroke-width="2" marker-end="url(#arrowhead)"/>
<circle cx="0" cy="123" r="5" fill="#28a745" stroke="#6c757d" stroke-width="1"/>
<text x="10" y="127" fill="#333333" font-size="11" font-weight="normal" text-anchor="start" font-family="monospace">rst</text>
<line x1="-30" y1="148" x2="0" y2="148" stroke="#28a745" stroke-width="2" marker-end="url(#arrowhead)"/>
<circle cx="0" cy="148" r="5" fill="#28a745" stroke="#6c757d" stroke-width="1"/>
<text x="10" y="152" fill="#333333" font-size="11" font-weight="normal" text-anchor="start" font-family="monospace">en</text>
<circle cx="200" cy="73" r="5" fill="#dc3545" stroke="#6c757d" stroke-width="1"/>
<line x1="200" y1="73" x2="230" y2="73" stroke="#dc3545" stroke-width="2" marker-end="url(#arrowhead)"/>
<text x="190" y="77" fill="#333333" font-size="11" font-weight="normal" text-anchor="end" font-family="monospace">q[8]</text>
</g>
<g transform="translate(40, 638.0) scale(0.8)">
<g filter="url(#shadow)">
<rect x="0" y="0" width="200" height="205" fill="#e9ecef" stroke="#6c757d" stroke-width="2" rx="5"/>
</g>
<rect x="0" y="0" width="200" height="50" fill="url(#headerGradient)" stroke="#6c757d" stroke-width="2" rx="5"/>
<text x="100" y="20" fill="#ffffff" font-size="14" font-weight="bold" text-anchor="middle" font-family="monospace">alu</text>
<text x="100" y="38" fill="#ffffff" font-size="11" font-weight="normal" text-anchor="middle" font-family="monospace">(ALU)</text>
<line x1="-30" y1="73" x2="0" y2="73" stroke="#28a745" stroke-width="2" marker-end="url(#arrowhead)"/>
<circle cx="0" cy="73" r="5" fill="#28a745" stroke="#6c757d" stroke-width="1"/>
<text x="10" y="77" fill="#333333" font-size="11" font-weight="normal" text-anchor="start" font-family="monospace">a[8]</text>
<line x1="-30" y1="98" x2="0" y2="98" stroke="#28a745" stroke-width="2" marker-end="url(#arrowhead)"/>
<circle cx="0" cy="98" r="5" fill="#28a745" stroke="#6c757d" stroke-width="1"/>
<text x="10" y="102" fill="#333333" font-size="11" font-weight="normal" text-anchor="start" font-family="monospace">b[8]</text>
<line x1="-30" y1="123" x2="0" y2="123" stroke="#28a745" stroke-width="2" marker-end="url(#arrowhead)"/>
<circle cx="0" cy="123" r="5" fill="#28a745" stroke="#6c757d" stroke-width="1"/>
<text x="10" y="127" fill="#333333" font-size="11" font-weight="normal" text-anchor="start" font-family="monospace">op[4]</text>
<line x1="-30" y1="148" x2="0" y2="148" stroke="#28a745" stroke-width="2" marker-end="url(#arrowhead)"/>
<circle cx="0" cy="148" r="5" fill="#28a745" stroke="#6c757d" stroke-width="1"/>
<text x="10" y="152" fill="#333333" font-size="11" font-weight="normal" text-anchor="start" font-family="monospace">cin</text>
<circle cx="200" cy="73" r="5" fill="#dc3545" stroke="#6c757d" stroke-width="1"/>
<line x1="200" y1="73" x2="230" y2="73" stroke="#dc3545" stroke-width="2" marker-end="url(#arrowhead)"/>
<text x="190" y="77" fill="#333333" font-size="11" font-weight="normal" text-anchor="end" font-family="monospace">result[8]</text>
<circle cx="200" cy="98" r="5" fill="#dc3545" stroke="#6c757d" stroke-width="1"/>
<line x1="200" y1="98" x2="230" y2="98" stroke="#dc3545" stroke-width="2" marker-end="url(#arrowhead)"/>
<text x="190" y="102" fill="#333333" font-size="11" font-weight="normal" text-anchor="end" font-family="monospace">cout</text>
<circle cx="200" cy="123" r="5" fill="#dc3545" stroke="#6c757d" stroke-width="1"/>
<line x1="200" y1="123" x2="230" y2="123" stroke="#dc3545" stroke-width="2" marker-end="url(#arrowhead)"/>
<text x="190" y="127" fill="#333333" font-size="11" font-weight="normal" text-anchor="end" font-family="monospace">zero</text>
<circle cx="200" cy="148" r="5" fill="#dc3545" stroke="#6c757d" stroke-width="1"/>
<line x1="200" y1="148" x2="230" y2="148" stroke="#dc3545" stroke-width="2" marker-end="url(#arrowhead)"/>
<text x="190" y="152" fill="#333333" font-size="11" font-weight="normal" text-anchor="end" font-family="monospace">negative</text>
<circle cx="200" cy="173" r="5" fill="#dc3545" stroke="#6c757d" stroke-width="1"/>
<line x1="200" y1="173" x2="230" y2="173" stroke="#dc3545" stroke-width="2" marker-end="url(#arrowhead)"/>
<text x="190" y="177" fill="#333333" font-size="11" font-weight="normal" text-anchor="end" font-family="monospace">overflow</text>
</g>
<g transform="translate(40, 822.0) scale(0.8)">
<g filter="url(#shadow)">
<rect x="0" y="0" width="264" height="380" fill="#e9ecef" stroke="#6c757d" stroke-width="2" rx="5"/>
</g>
<rect x="0" y="0" width="264" height="50" fill="url(#headerGradient)" stroke="#6c757d" stroke-width="2" rx="5"/>
<text x="132" y="20" fill="#ffffff" font-size="14" font-weight="bold" text-anchor="middle" font-family="monospace">decoder</text>
<text x="132" y="38" fill="#ffffff" font-size="11" font-weight="normal" text-anchor="middle" font-family="monospace">(InstructionDecoder)</text>
<line x1="-30" y1="73" x2="0" y2="73" stroke="#28a745" stroke-width="2" marker-end="url(#arrowhead)"/>
<circle cx="0" cy="73" r="5" fill="#28a745" stroke="#6c757d" stroke-width="1"/>
<text x="10" y="77" fill="#333333" font-size="11" font-weight="normal" text-anchor="start" font-family="monospace">instruction[8]</text>
<line x1="-30" y1="98" x2="0" y2="98" stroke="#28a745" stroke-width="2" marker-end="url(#arrowhead)"/>
<circle cx="0" cy="98" r="5" fill="#28a745" stroke="#6c757d" stroke-width="1"/>
<text x="10" y="102" fill="#333333" font-size="11" font-weight="normal" text-anchor="start" font-family="monospace">zero_flag</text>
<circle cx="264" cy="73" r="5" fill="#dc3545" stroke="#6c757d" stroke-width="1"/>
<line x1="264" y1="73" x2="294" y2="73" stroke="#dc3545" stroke-width="2" marker-end="url(#arrowhead)"/>
<text x="254" y="77" fill="#333333" font-size="11" font-weight="normal" text-anchor="end" font-family="monospace">alu_op[4]</text>
<circle cx="264" cy="98" r="5" fill="#dc3545" stroke="#6c757d" stroke-width="1"/>
<line x1="264" y1="98" x2="294" y2="98" stroke="#dc3545" stroke-width="2" marker-end="url(#arrowhead)"/>
<text x="254" y="102" fill="#333333" font-size="11" font-weight="normal" text-anchor="end" font-family="monospace">alu_src</text>
<circle cx="264" cy="123" r="5" fill="#dc3545" stroke="#6c757d" stroke-width="1"/>
<line x1="264" y1="123" x2="294" y2="123" stroke="#dc3545" stroke-width="2" marker-end="url(#arrowhead)"/>
<text x="254" y="127" fill="#333333" font-size="11" font-weight="normal" text-anchor="end" font-family="monospace">reg_write</text>
<circle cx="264" cy="148" r="5" fill="#dc3545" stroke="#6c757d" stroke-width="1"/>
<line x1="264" y1="148" x2="294" y2="148" stroke="#dc3545" stroke-width="2" marker-end="url(#arrowhead)"/>
<text x="254" y="152" fill="#333333" font-size="11" font-weight="normal" text-anchor="end" font-family="monospace">mem_read</text>
<circle cx="264" cy="173" r="5" fill="#dc3545" stroke="#6c757d" stroke-width="1"/>
<line x1="264" y1="173" x2="294" y2="173" stroke="#dc3545" stroke-width="2" marker-end="url(#arrowhead)"/>
<text x="254" y="177" fill="#333333" font-size="11" font-weight="normal" text-anchor="end" font-family="monospace">mem_write</text>
<circle cx="264" cy="198" r="5" fill="#dc3545" stroke="#6c757d" stroke-width="1"/>
<line x1="264" y1="198" x2="294" y2="198" stroke="#dc3545" stroke-width="2" marker-end="url(#arrowhead)"/>
<text x="254" y="202" fill="#333333" font-size="11" font-weight="normal" text-anchor="end" font-family="monospace">branch</text>
<circle cx="264" cy="223" r="5" fill="#dc3545" stroke="#6c757d" stroke-width="1"/>
<line x1="264" y1="223" x2="294" y2="223" stroke="#dc3545" stroke-width="2" marker-end="url(#arrowhead)"/>
<text x="254" y="227" fill="#333333" font-size="11" font-weight="normal" text-anchor="end" font-family="monospace">jump</text>
<circle cx="264" cy="248" r="5" fill="#dc3545" stroke="#6c757d" stroke-width="1"/>
<line x1="264" y1="248" x2="294" y2="248" stroke="#dc3545" stroke-width="2" marker-end="url(#arrowhead)"/>
<text x="254" y="252" fill="#333333" font-size="11" font-weight="normal" text-anchor="end" font-family="monospace">pc_src[2]</text>
<circle cx="264" cy="273" r="5" fill="#dc3545" stroke="#6c757d" stroke-width="1"/>
<line x1="264" y1="273" x2="294" y2="273" stroke="#dc3545" stroke-width="2" marker-end="url(#arrowhead)"/>
<text x="254" y="277" fill="#333333" font-size="11" font-weight="normal" text-anchor="end" font-family="monospace">halt</text>
<circle cx="264" cy="298" r="5" fill="#dc3545" stroke="#6c757d" stroke-width="1"/>
<line x1="264" y1="298" x2="294" y2="298" stroke="#dc3545" stroke-width="2" marker-end="url(#arrowhead)"/>
<text x="254" y="302" fill="#333333" font-size="11" font-weight="normal" text-anchor="end" font-family="monospace">call</text>
<circle cx="264" cy="323" r="5" fill="#dc3545" stroke="#6c757d" stroke-width="1"/>
<line x1="264" y1="323" x2="294" y2="323" stroke="#dc3545" stroke-width="2" marker-end="url(#arrowhead)"/>
<text x="254" y="327" fill="#333333" font-size="11" font-weight="normal" text-anchor="end" font-family="monospace">ret</text>
<circle cx="264" cy="348" r="5" fill="#dc3545" stroke="#6c757d" stroke-width="1"/>
<line x1="264" y1="348" x2="294" y2="348" stroke="#dc3545" stroke-width="2" marker-end="url(#arrowhead)"/>
<text x="254" y="352" fill="#333333" font-size="11" font-weight="normal" text-anchor="end" font-family="monospace">instr_length[2]</text>
</g>
<g transform="translate(40, 1146.0) scale(0.8)">
<g filter="url(#shadow)">
<rect x="0" y="0" width="200" height="180" fill="#e9ecef" stroke="#6c757d" stroke-width="2" rx="5"/>
</g>
<rect x="0" y="0" width="200" height="50" fill="url(#headerGradient)" stroke="#6c757d" stroke-width="2" rx="5"/>
<text x="100" y="20" fill="#ffffff" font-size="14" font-weight="bold" text-anchor="middle" font-family="monospace">mem</text>
<text x="100" y="38" fill="#ffffff" font-size="11" font-weight="normal" text-anchor="middle" font-family="monospace">(RAM)</text>
<line x1="-30" y1="73" x2="0" y2="73" stroke="#28a745" stroke-width="2" marker-end="url(#arrowhead)"/>
<circle cx="0" cy="73" r="5" fill="#28a745" stroke="#6c757d" stroke-width="1"/>
<text x="10" y="77" fill="#333333" font-size="11" font-weight="normal" text-anchor="start" font-family="monospace">clk</text>
<line x1="-30" y1="98" x2="0" y2="98" stroke="#28a745" stroke-width="2" marker-end="url(#arrowhead)"/>
<circle cx="0" cy="98" r="5" fill="#28a745" stroke="#6c757d" stroke-width="1"/>
<text x="10" y="102" fill="#333333" font-size="11" font-weight="normal" text-anchor="start" font-family="monospace">we</text>
<line x1="-30" y1="123" x2="0" y2="123" stroke="#28a745" stroke-width="2" marker-end="url(#arrowhead)"/>
<circle cx="0" cy="123" r="5" fill="#28a745" stroke="#6c757d" stroke-width="1"/>
<text x="10" y="127" fill="#333333" font-size="11" font-weight="normal" text-anchor="start" font-family="monospace">addr[16]</text>
<line x1="-30" y1="148" x2="0" y2="148" stroke="#28a745" stroke-width="2" marker-end="url(#arrowhead)"/>
<circle cx="0" cy="148" r="5" fill="#28a745" stroke="#6c757d" stroke-width="1"/>
<text x="10" y="152" fill="#333333" font-size="11" font-weight="normal" text-anchor="start" font-family="monospace">din[8]</text>
<circle cx="200" cy="73" r="5" fill="#dc3545" stroke="#6c757d" stroke-width="1"/>
<line x1="200" y1="73" x2="230" y2="73" stroke="#dc3545" stroke-width="2" marker-end="url(#arrowhead)"/>
<text x="190" y="77" fill="#333333" font-size="11" font-weight="normal" text-anchor="end" font-family="monospace">dout[8]</text>
</g>
<g transform="translate(40, 1310.0) scale(0.8)">
<g filter="url(#shadow)">
<rect x="0" y="0" width="200" height="180" fill="#e9ecef" stroke="#6c757d" stroke-width="2" rx="5"/>
</g>
<rect x="0" y="0" width="200" height="50" fill="url(#headerGradient)" stroke="#6c757d" stroke-width="2" rx="5"/>
<text x="100" y="20" fill="#ffffff" font-size="14" font-weight="bold" text-anchor="middle" font-family="monospace">sp</text>
<text x="100" y="38" fill="#ffffff" font-size="11" font-weight="normal" text-anchor="middle" font-family="monospace">(StackPointer)</text>
<line x1="-30" y1="73" x2="0" y2="73" stroke="#28a745" stroke-width="2" marker-end="url(#arrowhead)"/>
<circle cx="0" cy="73" r="5" fill="#28a745" stroke="#6c757d" stroke-width="1"/>
<text x="10" y="77" fill="#333333" font-size="11" font-weight="normal" text-anchor="start" font-family="monospace">clk</text>
<line x1="-30" y1="98" x2="0" y2="98" stroke="#28a745" stroke-width="2" marker-end="url(#arrowhead)"/>
<circle cx="0" cy="98" r="5" fill="#28a745" stroke="#6c757d" stroke-width="1"/>
<text x="10" y="102" fill="#333333" font-size="11" font-weight="normal" text-anchor="start" font-family="monospace">rst</text>
<line x1="-30" y1="123" x2="0" y2="123" stroke="#28a745" stroke-width="2" marker-end="url(#arrowhead)"/>
<circle cx="0" cy="123" r="5" fill="#28a745" stroke="#6c757d" stroke-width="1"/>
<text x="10" y="127" fill="#333333" font-size="11" font-weight="normal" text-anchor="start" font-family="monospace">push</text>
<line x1="-30" y1="148" x2="0" y2="148" stroke="#28a745" stroke-width="2" marker-end="url(#arrowhead)"/>
<circle cx="0" cy="148" r="5" fill="#28a745" stroke="#6c757d" stroke-width="1"/>
<text x="10" y="152" fill="#333333" font-size="11" font-weight="normal" text-anchor="start" font-family="monospace">pop</text>
<circle cx="200" cy="73" r="5" fill="#dc3545" stroke="#6c757d" stroke-width="1"/>
<line x1="200" y1="73" x2="230" y2="73" stroke="#dc3545" stroke-width="2" marker-end="url(#arrowhead)"/>
<text x="190" y="77" fill="#333333" font-size="11" font-weight="normal" text-anchor="end" font-family="monospace">q[8]</text>
<circle cx="200" cy="98" r="5" fill="#dc3545" stroke="#6c757d" stroke-width="1"/>
<line x1="200" y1="98" x2="230" y2="98" stroke="#dc3545" stroke-width="2" marker-end="url(#arrowhead)"/>
<text x="190" y="102" fill="#333333" font-size="11" font-weight="normal" text-anchor="end" font-family="monospace">empty</text>
<circle cx="200" cy="123" r="5" fill="#dc3545" stroke="#6c757d" stroke-width="1"/>
<line x1="200" y1="123" x2="230" y2="123" stroke="#dc3545" stroke-width="2" marker-end="url(#arrowhead)"/>
<text x="190" y="127" fill="#333333" font-size="11" font-weight="normal" text-anchor="end" font-family="monospace">full</text>
</g>
</svg>